<svg width="46" height="52" viewBox="0 0 46 52" fill="none" xmlns="http://www.w3.org/2000/svg">
<path d="M0.477822 27.4992C0.477822 38.1959 6.69385 47.439 15.7076 51.8199L2.81738 16.5018C1.27214 19.962 0.474898 23.7096 0.477822 27.4992ZM45.7429 26.1356C45.7429 22.796 44.5433 20.4831 43.5144 18.683C42.1446 16.457 40.8612 14.572 40.8612 12.3461C40.8612 9.86204 42.7447 7.54973 45.3984 7.54973C45.5182 7.54973 45.6319 7.56464 45.7491 7.57132C40.9409 3.16678 34.5357 0.47757 27.5005 0.47757C18.06 0.47757 9.75431 5.32123 4.92247 12.6577C5.55647 12.6767 6.15447 12.6896 6.66146 12.6896C9.48796 12.6896 13.8632 12.3466 13.8632 12.3466C15.3199 12.2607 15.4916 14.4003 14.037 14.5725C14.037 14.5725 12.5726 14.7448 10.9436 14.8301L20.7842 44.1003L26.6984 26.3644L22.4877 14.8296C21.0325 14.7443 19.654 14.572 19.654 14.572C18.1978 14.4867 18.3685 12.2602 19.8247 12.3461C19.8247 12.3461 24.2873 12.689 26.9426 12.689C29.7686 12.689 34.1444 12.3461 34.1444 12.3461C35.6021 12.2602 35.7733 14.3998 34.3176 14.572C34.3176 14.572 32.8507 14.7443 31.2248 14.8296L40.9903 43.8782L43.6851 34.8712C44.8539 31.1335 45.7429 28.4489 45.7429 26.1356Z" fill="#00749A"/>
</svg>
